<?xml version="1.0" encoding="UTF-8" standalone="no"?><svg xmlns="http://www.w3.org/2000/svg" xmlns:xlink="http://www.w3.org/1999/xlink" style="isolation:isolate" viewBox="107.292 15 357.415 50" width="357.415pt" height="50pt"><path d=" M 126.459 65 L 126.459 65 Q 120.834 65 115.591 63.403 L 115.591 63.403 L 115.591 63.403 Q 110.348 61.806 107.292 59.167 L 107.292 59.167 L 110.417 52.153 L 110.417 52.153 Q 113.403 54.514 117.744 56.007 L 117.744 56.007 L 117.744 56.007 Q 122.084 57.5 126.459 57.5 L 126.459 57.5 L 126.459 57.5 Q 131.876 57.5 134.549 55.764 L 134.549 55.764 L 134.549 55.764 Q 137.223 54.028 137.223 51.181 L 137.223 51.181 L 137.223 51.181 Q 137.223 49.097 135.73 47.743 L 135.73 47.743 L 135.73 47.743 Q 134.237 46.389 131.945 45.625 L 131.945 45.625 L 131.945 45.625 Q 129.653 44.861 125.695 43.889 L 125.695 43.889 L 125.695 43.889 Q 120.14 42.569 116.702 41.25 L 116.702 41.25 L 116.702 41.25 Q 113.265 39.931 110.799 37.118 L 110.799 37.118 L 110.799 37.118 Q 108.334 34.306 108.334 29.514 L 108.334 29.514 L 108.334 29.514 Q 108.334 25.486 110.522 22.187 L 110.522 22.187 L 110.522 22.187 Q 112.709 18.889 117.119 16.944 L 117.119 16.944 L 117.119 16.944 Q 121.528 15 127.917 15 L 127.917 15 L 127.917 15 Q 132.362 15 136.667 16.111 L 136.667 16.111 L 136.667 16.111 Q 140.973 17.222 144.098 19.306 L 144.098 19.306 L 141.251 26.319 L 141.251 26.319 Q 138.056 24.444 134.584 23.472 L 134.584 23.472 L 134.584 23.472 Q 131.112 22.5 127.848 22.5 L 127.848 22.5 L 127.848 22.5 Q 122.501 22.5 119.896 24.306 L 119.896 24.306 L 119.896 24.306 Q 117.292 26.111 117.292 29.097 L 117.292 29.097 L 117.292 29.097 Q 117.292 31.181 118.785 32.5 L 118.785 32.5 L 118.785 32.5 Q 120.278 33.819 122.57 34.583 L 122.57 34.583 L 122.57 34.583 Q 124.862 35.347 128.82 36.319 L 128.82 36.319 L 128.82 36.319 Q 134.237 37.569 137.709 38.924 L 137.709 38.924 L 137.709 38.924 Q 141.181 40.278 143.647 43.056 L 143.647 43.056 L 143.647 43.056 Q 146.112 45.833 146.112 50.556 L 146.112 50.556 L 146.112 50.556 Q 146.112 54.583 143.924 57.847 L 143.924 57.847 L 143.924 57.847 Q 141.737 61.111 137.292 63.056 L 137.292 63.056 L 137.292 63.056 Q 132.848 65 126.459 65 L 126.459 65 Z  M 214.476 15.694 L 223.504 15.694 L 223.504 64.306 L 214.476 64.306 L 214.476 43.472 L 189.337 43.472 L 189.337 64.306 L 180.309 64.306 L 180.309 15.694 L 189.337 15.694 L 189.337 35.764 L 214.476 35.764 L 214.476 15.694 Z  M 300.965 64.306 L 310.41 64.306 L 288.465 15.694 L 279.576 15.694 L 257.701 64.306 L 267.007 64.306 L 283.951 24.722 L 300.965 64.306 Z  M 464.708 15.694 L 445.68 47.153 L 445.68 64.306 L 436.652 64.306 L 436.652 47.292 L 417.555 15.694 L 427.208 15.694 L 441.444 39.375 L 455.819 15.694 L 464.708 15.694 Z  M 344.607 15.694 L 356.83 15.694 L 356.83 15.694 Q 364.607 15.694 370.649 18.715 L 370.649 18.715 L 370.649 18.715 Q 376.691 21.736 380.024 27.257 L 380.024 27.257 L 380.024 27.257 Q 383.357 32.778 383.357 40 L 383.357 40 L 383.357 40 Q 383.357 47.222 380.024 52.743 L 380.024 52.743 L 380.024 52.743 Q 376.691 58.264 370.649 61.285 L 370.649 61.285 L 370.649 61.285 Q 364.607 64.306 356.83 64.306 L 356.83 64.306 L 344.607 64.306 L 344.607 56.667 L 356.413 56.667 L 356.413 56.667 Q 361.76 56.667 365.823 54.618 L 365.823 54.618 L 365.823 54.618 Q 369.885 52.569 372.073 48.785 L 372.073 48.785 L 372.073 48.785 Q 374.26 45 374.26 40 L 374.26 40 L 374.26 40 Q 374.26 35 372.073 31.215 L 372.073 31.215 L 372.073 31.215 Q 369.885 27.431 365.823 25.382 L 365.823 25.382 L 365.823 25.382 Q 361.76 23.333 356.413 23.333 L 356.413 23.333 L 344.607 23.333 L 344.607 15.694 Z " fill-rule="evenodd" fill="rgb(255,255,255)"/></svg>